/* XPM */
static char * firessh_main_window_xpm[] = {
"16 16 127 2",
"  	c None",
". 	c #B179D5",
"+ 	c #AF78D4",
"@ 	c #A46DC9",
"# 	c #BC80DF",
"$ 	c #9E6CBA",
"% 	c #B67BDB",
"& 	c #B97CDE",
"* 	c #9E6BBC",
"= 	c #A16FBF",
"- 	c #A170BD",
"; 	c #A974C8",
"> 	c #A370C1",
", 	c #BF83E3",
"' 	c #8B53B5",
") 	c #A26DC3",
"! 	c #9968B7",
"~ 	c #9A69B6",
"{ 	c #A271BE",
"] 	c #9D6DB9",
"^ 	c #9B6BB7",
"/ 	c #A26FC3",
"( 	c #A065C7",
"_ 	c #935EBA",
": 	c #9263AE",
"< 	c #9062AC",
"[ 	c #8C5EA8",
"} 	c #9768B3",
"| 	c #9D6DB8",
"1 	c #A272BD",
"2 	c #A271BD",
"3 	c #9A6BB5",
"4 	c #9163AC",
"5 	c #8559A2",
"6 	c #A266CD",
"7 	c #A16BC5",
"8 	c #7F539A",
"9 	c #A580BB",
"0 	c #9667B0",
"a 	c #A881BF",
"b 	c #E3D8EB",
"c 	c #B99ACB",
"d 	c #8F62AA",
"e 	c #865AA2",
"f 	c #A672C9",
"g 	c #985DC3",
"h 	c #8750B2",
"i 	c #754D92",
"j 	c #754C8F",
"k 	c #7C5396",
"l 	c #BBA4C9",
"m 	c #E2D8EA",
"n 	c #B799C9",
"o 	c #C9B3D7",
"p 	c #5E466F",
"q 	c #F6F4F8",
"r 	c #81569B",
"s 	c #8558A3",
"t 	c #955EBE",
"u 	c #9E63C8",
"v 	c #8154A0",
"w 	c #6F4888",
"x 	c #5A436A",
"y 	c #C8B2D5",
"z 	c #A683BB",
"A 	c #CBBCD6",
"B 	c #764E91",
"C 	c #6D4886",
"D 	c #684381",
"E 	c #864EB2",
"F 	c #A168CB",
"G 	c #774E92",
"H 	c #6C4685",
"I 	c #A38AB2",
"J 	c #9C79B2",
"K 	c #6E4787",
"L 	c #9170A6",
"M 	c #815E99",
"N 	c #653F7D",
"O 	c #8251A4",
"P 	c #955CBE",
"Q 	c #543071",
"R 	c #734C8C",
"S 	c #633E7D",
"T 	c #5D3C75",
"U 	c #704D88",
"V 	c #5E3B76",
"W 	c #5E3C76",
"X 	c #5E3C77",
"Y 	c #58366E",
"Z 	c #6A4483",
"` 	c #9960C4",
" .	c #8D51BB",
"..	c #8F54BC",
"+.	c #704194",
"@.	c #633F7C",
"#.	c #513167",
"$.	c #53346A",
"%.	c #4F3165",
"&.	c #4F3065",
"*.	c #5B3576",
"=.	c #6E438D",
"-.	c #603C79",
";.	c #502D6B",
">.	c #834BB2",
",.	c #7D42AD",
"'.	c #5B3379",
").	c #6C4488",
"!.	c #6F4491",
"~.	c #59386F",
"{.	c #512F6E",
"].	c #4E2E66",
"^.	c #492A60",
"/.	c #6D3A9A",
"(.	c #9B5EC6",
"_.	c #A063CC",
":.	c #7640A4",
"<.	c #492B5F",
"[.	c #6E3C98",
"}.	c #9057BB",
"|.	c #351B4B",
"1.	c #783FA8",
"2.	c #9356C2",
"3.	c #43245B",
"4.	c #9458C3",
"5.	c #7D47AB",
"6.	c #7C44AB",
"                                ",
"            .       +           ",
"      @     #   $   %           ",
"        &   * = - ; >   , '     ",
"        ) ! ~ ~ { ] ^ / (       ",
"  _   : < [ } | 1 2 3 : 4 5     ",
"    6 7 8 [ 9 0 a b c d e f g h ",
"    i j k l m n o p q r s t     ",
"    u v w q x y z q A B C D     ",
"  E F G H I q J K L M N O P     ",
"    Q R S T U V W X Y Z H `  .  ",
"      ..+.@.#.$.%.&.*.=.-.;.    ",
"    >.,.'.).!.~.{.].^./.(.      ",
"          _.:.<.[.}.|.  1.      ",
"          2.  3.  4.            ",
"          5.      6.            "};
